# xmcd
#
# Track frame offsets:
#	150
#	16182
#	34312
#	51052
#	68261
#	84466
#	100656
#	128579
#	145423
#	160770
#	181752
#	205393
#	223025
#	240920
#	263610
#	280478
#	295078
#	312613
#	329754
#
# Disc length: 4640 seconds
#
# Revision: 1
# Processed by: cddbd v1.5.2PL0 Copyright (c) Steve Scherf et al.
# Submitted via: audiograbber 1.83.01
#
DISCID=0e121e13
DTITLE=Brantley Gilbert - Just As I Am (Platinum Edition)
DYEAR=2015
DGENRE=Country
TTITLE0=If You Want a Bad Boy
TTITLE1=17 Again
TTITLE2=Bottoms Up
TTITLE3=That Was Us
TTITLE4=I'm Gone
TTITLE5=My Baby's Guns N' Roses
TTITLE6=Lights of My Hometown
TTITLE7=One Hell of an Amen
TTITLE8=Small Town Throwdown (feat. Justin Moore and Thomas Rhett)
TTITLE9=Let It Ride
TTITLE10=My Faith In You
TTITLE11=G.R.I.T.S.
TTITLE12=Read Me My Rights
TTITLE13=Grown Ass Man
TTITLE14=Bottoms Up (feat. T.I.)
TTITLE15=Do What the Night Wants
TTITLE16=Stone Cold Sober
TTITLE17=Same Old Song
TTITLE18=Just as I Am
EXTD=
EXTT0=
EXTT1=
EXTT2=
EXTT3=
EXTT4=
EXTT5=
EXTT6=
EXTT7=
EXTT8=
EXTT9=
EXTT10=
EXTT11=
EXTT12=
EXTT13=
EXTT14=
EXTT15=
EXTT16=
EXTT17=
EXTT18=
PLAYORDER=
